<?xml version="1.0" encoding="utf-8"?>
<svg xmlns="http://www.w3.org/2000/svg" viewBox="0 0 200 500">
  <g style="" transform="matrix(1.156821, 0, 0, 1.156821, -184.075806, 0)">
    <path style="stroke: rgb(0, 0, 0); stroke-width: 0px;" d="M 245.501 0 L 255.142 21.851 C 255.142 21.851 262.21 21.851 275.707 37.918 C 289.204 53.985 276.35 104.755 262.211 112.467 C 248.072 120.179 170.951 174.807 161.311 228.792 C 151.671 282.777 174.165 332.905 223.008 335.476 C 271.851 338.047 309.126 327.763 320.694 289.846 C 332.262 251.929 302.057 214.653 273.136 212.082 C 244.215 209.511 228.149 223.65 224.936 251.285 C 221.723 278.92 253.214 292.416 253.214 292.416 C 253.214 292.416 227.506 257.712 246.787 240.36 C 266.068 223.008 284.704 241.073 290.488 248.715 C 296.272 256.357 310.411 275.707 296.272 301.414 C 282.133 327.121 264.782 327.763 241.003 330.334 C 217.224 332.905 185.733 315.553 192.802 251.928 C 199.871 188.303 250.643 158.74 271.208 142.031 C 291.773 125.322 305.27 78.406 294.987 54.627 C 284.704 30.848 246.144 0.642 245.501 0 Z"/>
    <path style="stroke: rgb(0, 0, 0); stroke-width: 0px;" d="M 246.144 0 C 246.144 0 217.866 23.779 216.581 59.126 C 215.296 94.473 286.632 379.82 286.632 379.82 C 286.632 379.82 299.485 407.455 281.49 419.666 C 263.495 431.877 257.711 421.593 257.711 421.593 C 257.711 421.593 271.85 414.139 273.136 400 C 274.422 385.861 262.211 365.681 241.645 365.039 C 221.079 364.397 208.868 382.648 208.869 400 C 208.87 417.352 220.437 428.663 246.144 431.234 C 271.851 433.805 282.134 431.877 292.417 419.023 C 302.7 406.169 294.344 383.033 293.702 378.535 C 293.06 374.037 227.506 100.9 226.864 89.974 C 226.222 79.048 232.005 59.769 239.717 44.345 C 247.429 28.921 255.784 21.851 255.784 21.851 L 246.144 0 Z"/>
  </g>
</svg>